<?xml version="1.0" encoding="UTF-8"?>
<svg id="Layer_1" data-name="Layer 1" xmlns="http://www.w3.org/2000/svg" viewBox="0 0 1080 1080">
  <defs>
    <style>
      .cls-1 {
        fill: #fff;
      }
    </style>
  </defs>
  <rect width="1080" height="1080"/>
  <g>
    <path class="cls-1" d="M652.02,513.07c11.56,17.12,18.3,37.76,18.3,59.96,0,59.27-48.05,107.33-107.32,107.33s-107.33-48.05-107.33-107.33c0-43.72,26.14-81.33,63.64-98.06v51.22c-12.55,11.71-20.4,28.37-20.4,46.84,0,35.33,28.74,64.08,64.08,64.08s64.08-28.75,64.08-64.08c0-13.37-4.11-25.8-11.16-36.09-4.66-6.83-10.61-12.7-17.49-17.28-5.21-3.47-10.95-6.2-17.07-8.03v36.44h-45.9v-102.98h-.11v-36.15h46.01v48.93l38.58-58.23h52.33l-54.78,80.76.57.49c10.08,6.04,19.09,13.68,26.67,22.58,2.59,3.04,5.01,6.23,7.25,9.54.01.02.02.04.03.05Z"/>
    <path class="cls-1" d="M519.87,455.22v-45.18h0c-61.93,0-112.13,50.2-112.13,112.13h45.18c0-36.92,30.03-66.95,66.95-66.95h0ZM519.87,455.22"/>
  </g>
</svg>
