<?xml version="1.0" encoding="UTF-8"?>
<svg id="Layer_1" data-name="Layer 1" xmlns="http://www.w3.org/2000/svg" viewBox="0 0 1080 1080">
  <defs>
    <style>
      .cls-1 {
        fill: #ff5303;
      }
    </style>
  </defs>
  <rect width="1080" height="1080"/>
  <g>
    <g>
      <path class="cls-1" d="M338.86,583.33v-100.27h17.19v45.41l32.8-45.41h19.91l-36.38,48.85,38.39,51.42h-20.63l-34.09-46.7v46.7h-17.19Z"/>
      <path class="cls-1" d="M440.13,584.76c-6.4,0-12.03-1.53-16.9-4.58-4.87-3.05-8.67-7.57-11.39-13.54-2.72-5.97-4.08-12.96-4.08-20.99s1.36-15.23,4.08-21.06c2.72-5.82,6.52-10.31,11.39-13.46s10.41-4.73,16.62-4.73c6.78,0,12.51,1.72,17.19,5.16,4.68,3.44,8.24,8,10.67,13.68,2.44,5.68,3.65,12.01,3.65,18.98,0,1.05-.07,2.13-.21,3.22-.14,1.1-.31,2.13-.5,3.08h-52.57v-12.75h38.39c-.38-3.53-1.24-6.64-2.58-9.31-1.34-2.67-3.18-4.75-5.52-6.23-2.34-1.48-5.08-2.22-8.24-2.22-3.53,0-6.59,1.05-9.17,3.15-2.58,2.1-4.54,5.06-5.87,8.88-1.34,3.82-2.01,8.36-2.01,13.61,0,5.64.64,10.38,1.93,14.25,1.29,3.87,3.22,6.71,5.8,8.52,2.58,1.82,5.68,2.72,9.31,2.72,3.34,0,6.09-.64,8.24-1.93,2.15-1.29,3.99-3.51,5.52-6.66h15.33c-1.53,4.78-3.63,8.81-6.3,12.1-2.67,3.29-5.92,5.8-9.74,7.52-3.82,1.72-8.17,2.58-13.04,2.58Z"/>
      <path class="cls-1" d="M504.88,583.33c-4.49,0-8.19-.83-11.1-2.51-2.91-1.67-5.08-4.06-6.52-7.16-1.43-3.1-2.15-6.75-2.15-10.96v-40.82h-10.46v-14.04h10.46l2.44-20.05h13.18v20.05h16.04v14.04h-16.04v39.39c0,2.58.57,4.58,1.72,6.02,1.15,1.43,2.67,2.15,4.58,2.15h9.74v13.89h-11.89Z"/>
      <path class="cls-1" d="M551.58,583.33c-4.49,0-8.19-.83-11.1-2.51-2.91-1.67-5.08-4.06-6.52-7.16-1.43-3.1-2.15-6.75-2.15-10.96v-40.82h-10.46v-14.04h10.46l2.43-20.05h13.18v20.05h16.04v14.04h-16.04v39.39c0,2.58.57,4.58,1.72,6.02,1.15,1.43,2.67,2.15,4.58,2.15h9.74v13.89h-11.89Z"/>
      <path class="cls-1" d="M573.64,583.33v-100.27h15.76v100.27h-15.76Z"/>
      <path class="cls-1" d="M632.08,584.76c-6.4,0-12.03-1.53-16.9-4.58-4.87-3.05-8.67-7.57-11.39-13.54-2.72-5.97-4.08-12.96-4.08-20.99s1.36-15.23,4.08-21.06c2.72-5.82,6.52-10.31,11.39-13.46s10.41-4.73,16.62-4.73c6.78,0,12.51,1.72,17.19,5.16,4.68,3.44,8.24,8,10.67,13.68,2.43,5.68,3.65,12.01,3.65,18.98,0,1.05-.07,2.13-.21,3.22-.14,1.1-.31,2.13-.5,3.08h-52.57v-12.75h38.39c-.38-3.53-1.24-6.64-2.58-9.31-1.34-2.67-3.18-4.75-5.51-6.23-2.34-1.48-5.09-2.22-8.24-2.22-3.53,0-6.59,1.05-9.17,3.15-2.58,2.1-4.54,5.06-5.87,8.88-1.34,3.82-2.01,8.36-2.01,13.61,0,5.64.64,10.38,1.93,14.25,1.29,3.87,3.22,6.71,5.8,8.52,2.58,1.82,5.68,2.72,9.31,2.72,3.34,0,6.09-.64,8.24-1.93,2.15-1.29,3.99-3.51,5.51-6.66h15.33c-1.53,4.78-3.63,8.81-6.3,12.1-2.67,3.29-5.92,5.8-9.74,7.52-3.82,1.72-8.16,2.58-13.04,2.58Z"/>
      <path class="cls-1" d="M697.11,584.76c-5.44,0-10.22-.93-14.32-2.79-4.11-1.86-7.38-4.54-9.81-8.02-2.43-3.48-4.04-7.61-4.8-12.39h15.18c.67,3.44,2.22,5.99,4.66,7.66,2.44,1.67,5.37,2.51,8.81,2.51,3.91,0,6.85-.79,8.81-2.36,1.96-1.58,2.94-3.7,2.94-6.37,0-2.1-.64-3.84-1.93-5.23-1.29-1.38-2.94-2.51-4.94-3.37-2-.86-4.68-1.86-8.02-3.01-4.97-1.53-8.95-3.08-11.96-4.66-3.01-1.58-5.64-3.84-7.88-6.8-2.25-2.96-3.37-6.92-3.37-11.89,0-4.1,1.12-7.78,3.37-11.03,2.24-3.25,5.37-5.82,9.38-7.74,4.01-1.91,8.55-2.87,13.61-2.87s9.48.88,13.25,2.65c3.77,1.77,6.78,4.2,9.02,7.31,2.24,3.1,3.7,6.95,4.37,11.53h-15.18c-.57-2.77-1.89-4.87-3.94-6.3-2.05-1.43-4.66-2.15-7.81-2.15s-5.66.74-7.52,2.22c-1.86,1.48-2.79,3.46-2.79,5.94,0,2.2.64,4.01,1.93,5.44s2.96,2.63,5.01,3.58c2.05.96,4.84,2.01,8.38,3.15,4.68,1.53,8.55,3.06,11.6,4.58,3.05,1.53,5.66,3.75,7.81,6.66,2.15,2.91,3.22,6.76,3.22,11.53,0,4.49-1.12,8.41-3.37,11.75-2.25,3.34-5.44,5.92-9.6,7.74-4.15,1.81-8.86,2.72-14.11,2.72Z"/>
    </g>
    <g>
      <path class="cls-1" d="M730.65,503.39v-13.59h-4.39v-3.01h12.12v3.01h-4.32v13.59h-3.42Z"/>
      <path class="cls-1" d="M739.66,503.39v-16.6h4.63l3.84,11.84h.12l3.82-11.84h4.53v16.6h-3.16v-11.93h-.12l-3.89,11.93h-2.59l-3.89-11.93h-.12v11.93h-3.18Z"/>
    </g>
    <rect class="cls-1" x="325.42" y="479.5" width="14.98" height="22.05" transform="translate(-157.61 823.43) rotate(-90)"/>
  </g>
</svg>
